<?xml version="1.0" encoding="utf-8"?>
<!-- Generator: Adobe Illustrator 19.0.0, SVG Export Plug-In . SVG Version: 6.00 Build 0)  -->
<svg version="1.1" id="图层_1" xmlns="http://www.w3.org/2000/svg" xmlns:xlink="http://www.w3.org/1999/xlink" x="0px" y="0px"
	 viewBox="0 0 355.2 207.7" style="enable-background:new 0 0 355.2 207.7;" xml:space="preserve">
<style type="text/css">
	.st0{fill-rule:evenodd;clip-rule:evenodd;fill:#F4F4F4;}
	.st1{fill-rule:evenodd;clip-rule:evenodd;fill:#E2E2E2;}
	.st2{fill-rule:evenodd;clip-rule:evenodd;fill:#D8D8D8;}
	.st3{fill-rule:evenodd;clip-rule:evenodd;fill:#C1C1C1;}
	.st4{fill-rule:evenodd;clip-rule:evenodd;fill:#F2F2F2;}
	.st5{fill-rule:evenodd;clip-rule:evenodd;fill:#B2B2B2;}
	.st6{fill-rule:evenodd;clip-rule:evenodd;fill:#F6F0E7;}
	.st7{fill-rule:evenodd;clip-rule:evenodd;fill:#FFFFFF;}
</style>
<g>
	<path class="st0" d="M177.6,38.2c78.3,0,141.7,63.4,141.7,141.7c0,8.4-0.8,16.6-2.1,24.8c0.2,0.8-279.4-0.2-279.4-0.8
		c-1.3-7.8-2.1-15.8-2.1-24.1C35.9,101.7,99.3,38.2,177.6,38.2L177.6,38.2z"/>
	<path class="st1" d="M177.6,68.1c64.2,0,116.3,52.1,116.3,116.3c0,6.9-0.6,13.7-1.7,20.2c0.2,0.6-229.1-0.2-229.1-0.6
		c-1.1-6.5-1.7-13-1.7-19.7C61.3,120.3,113.4,68.1,177.6,68.1L177.6,68.1z"/>
	<path class="st2" d="M177.6,101.7c48.5,0,87.8,39.3,87.8,87.6c0,5.2-0.4,10.3-1.3,15.3c0.2,0.4-173.2,0-173.2-0.4
		c-0.8-4.8-1.3-9.7-1.3-14.9C89.7,141.1,129.1,101.7,177.6,101.7L177.6,101.7z"/>
	<path class="st3" d="M63.6,46.2c2.1,0,3.8-1.7,3.8-3.8c0-2.1-1.7-3.8-3.8-3.8c-2.1,0-3.8,1.7-3.8,3.8
		C59.8,44.5,61.5,46.2,63.6,46.2L63.6,46.2z M8.2,204.7H1.5c-0.8,0-1.5,0.8-1.5,1.5c0,0.8,0.8,1.5,1.5,1.5h6.7
		c0.8,0,1.5-0.8,1.5-1.5C9.7,205.4,9,204.7,8.2,204.7L8.2,204.7z M319.3,204.7H132.3c-0.8,0-1.5,0.8-1.5,1.5c0,0.8,0.8,1.5,1.5,1.5
		h186.9c0.8,0,1.5-0.8,1.5-1.5C320.8,205.4,320,204.7,319.3,204.7L319.3,204.7z M319.3,180h-83.8c-0.8,0-1.5,0.8-1.5,1.5
		c0,0.8,0.8,1.5,1.5,1.5h83.8c0.8,0,1.5-0.8,1.5-1.5C320.8,180.8,320,180,319.3,180L319.3,180z M98.7,183.1h35.1
		c0.8,0,1.5-0.8,1.5-1.5c0-0.8-0.8-1.5-1.5-1.5H98.7c-0.8,0-1.5,0.8-1.5,1.5C97.2,182.3,98,183.1,98.7,183.1L98.7,183.1z
		 M216.2,183.1h8.2c0.8,0,1.5-0.8,1.5-1.5c0-0.8-0.8-1.5-1.5-1.5h-8.2c-0.8,0-1.5,0.8-1.5,1.5C214.6,182.3,215.2,183.1,216.2,183.1
		L216.2,183.1z M69.5,183.1h20.2c0.8,0,1.5-0.8,1.5-1.5c0-0.8-0.8-1.5-1.5-1.5H69.5c-0.8,0-1.5,0.8-1.5,1.5
		C68,182.3,68.7,183.1,69.5,183.1L69.5,183.1z M353.6,204.7h-18.7c-0.8,0-1.5,0.8-1.5,1.5c0,0.8,0.8,1.5,1.5,1.5h18.7
		c0.8,0,1.5-0.8,1.5-1.5C355.2,205.4,354.4,204.7,353.6,204.7L353.6,204.7z M127.2,204.7h-6.9c-0.8,0-1.5,0.8-1.5,1.5
		c0,0.8,0.8,1.5,1.5,1.5h6.7c0.8,0,1.5-0.8,1.5-1.5C128.7,205.4,127.9,204.7,127.2,204.7L127.2,204.7z M112.1,204.7H13.4
		c-0.8,0-1.5,0.8-1.5,1.5c0,0.8,0.8,1.5,1.5,1.5h98.7c0.8,0,1.5-0.8,1.5-1.5C113.6,205.4,113,204.7,112.1,204.7L112.1,204.7z"/>
	<path class="st4" d="M183.7,178.1c0,0-59.3-74.9-59.3-107.1c0-32.2,26.6-58.2,59.3-58.2S243,38.8,243,71
		C243,103.2,183.7,178.1,183.7,178.1L183.7,178.1z M183.2,46.2C169.3,46.2,158,57.3,158,71c0,13.7,11.3,24.8,25.2,24.8
		c13.8,0,25.2-11.1,25.2-24.8C208.3,57.3,197,46.2,183.2,46.2L183.2,46.2z"/>
	<path class="st5" d="M183.7,181l-1.4-1.8c-2.5-3.1-59.7-75.8-59.7-108.2c0-33.1,27.5-60,61.1-60s61.1,27,61.1,60
		c0,32.3-57.3,105.1-59.7,108.2L183.7,181L183.7,181z M183.7,14.6c-31.6,0-57.5,25.3-57.5,56.4c0,28.4,48.5,92.6,57.5,104.2
		c9-11.7,57.5-75.7,57.5-104.2C241.2,39.9,215.3,14.6,183.7,14.6L183.7,14.6z M183.2,97.6c-14.9,0-27-11.9-27-26.6
		c0-14.7,12-26.6,27-26.6c14.9,0,27,11.9,27,26.6C210.1,85.7,198.1,97.6,183.2,97.6L183.2,97.6z M183.2,48
		c-12.9,0-23.4,10.2-23.4,23c0,12.8,10.4,23,23.4,23c12.9,0,23.4-10.2,23.4-23C206.5,58.2,196.1,48,183.2,48L183.2,48z"/>
	<path class="st6" d="M81.3,122c-1.9,0.4-3.4,1.9-3.8,3.8c-0.8,3.8,2.5,7.1,6.3,6.3c1.9-0.4,3.4-1.9,3.8-3.8
		C88.4,124.5,85.2,121.2,81.3,122L81.3,122z M288.3,2.1c-3.2,0.6-5.9,3.1-6.3,6.3c-1,5.3,3.6,9.9,9,9c3.2-0.6,5.9-3.1,6.3-6.3
		C298.3,5.7,293.7,1.1,288.3,2.1L288.3,2.1z"/>
	<path class="st7" d="M81.3,122c-1.9,0.4-3.4,1.9-3.8,3.8c-0.8,3.8,2.5,7.1,6.3,6.3c1.9-0.4,3.4-1.9,3.8-3.8
		C88.4,124.5,85.2,121.2,81.3,122L81.3,122z M288.3,2.1c-3.2,0.6-5.9,3.1-6.3,6.3c-1,5.3,3.6,9.9,9,9c3.2-0.6,5.9-3.1,6.3-6.3
		C298.3,5.7,293.7,1.1,288.3,2.1L288.3,2.1z"/>
	<path class="st6" d="M82.7,133.3c-1.7,0-3.2-0.6-4.4-1.9c-1.5-1.5-2.1-3.6-1.7-5.7c0.4-2.3,2.3-4.2,4.6-4.6
		c2.1-0.4,4.2,0.2,5.7,1.7c1.5,1.5,2.1,3.6,1.7,5.7c-0.4,2.3-2.3,4.2-4.6,4.6C83.6,133.1,83.1,133.3,82.7,133.3L82.7,133.3z
		 M82.5,122.8h-1c-1.5,0.4-2.7,1.5-3.1,3.1c-0.4,1.5,0.2,3.1,1.1,4c1,1,2.5,1.5,4,1.1c1.5-0.4,2.7-1.5,3.1-3.1
		c0.4-1.5-0.2-3.1-1.1-4C84.8,123.3,83.6,122.8,82.5,122.8L82.5,122.8z M289.7,18.5c-2.3,0-4.4-1-6.1-2.5c-2.1-2.1-2.9-4.8-2.5-7.6
		c0.4-3.4,3.2-6.5,7.1-7.1c2.9-0.6,5.7,0.4,7.6,2.5c2.1,2.1,2.9,4.8,2.5,7.6c-0.4,3.4-3.2,6.5-7.1,7.1
		C290.6,18.3,290.1,18.5,289.7,18.5L289.7,18.5z M289.7,2.8c-0.4,0-0.8,0-1.3,0.2c-2.9,0.6-5.2,2.9-5.5,5.5
		c-0.4,2.3,0.2,4.4,1.9,6.1c1.7,1.7,3.8,2.3,5.9,1.9c2.9-0.6,5.2-2.7,5.5-5.5c0.4-2.3-0.2-4.4-1.9-6.1
		C293.3,3.6,291.6,2.8,289.7,2.8L289.7,2.8z"/>
	<path class="st3" d="M82.7,134.2c-1.9,0-3.8-0.8-5.2-2.1c-1.7-1.7-2.5-4.2-1.9-6.7c0.6-2.7,2.7-4.8,5.3-5.3c2.5-0.6,5,0.2,6.7,1.9
		c1.7,1.7,2.5,4.2,1.9,6.7c-0.6,2.7-2.7,4.8-5.3,5.3C83.6,134,83.3,134.2,82.7,134.2L82.7,134.2z M82.5,123.7h-0.8
		c-1.1,0.2-2.1,1.1-2.3,2.3c-0.2,1.1,0,2.3,1,3.1c0.8,0.8,1.9,1.1,3.1,1c1.1-0.2,2.1-1.1,2.3-2.3c0.2-1.1,0-2.3-1-3.1
		C84.2,124.1,83.4,123.7,82.5,123.7L82.5,123.7z M289.5,19.4c-2.5,0-5-1-6.7-2.9c-2.3-2.3-3.2-5.3-2.7-8.6c0.4-3.8,3.6-7.1,7.8-7.8
		c3.2-0.6,6.3,0.4,8.6,2.7c2.3,2.3,3.2,5.3,2.7,8.6c-0.4,3.8-3.6,7.1-7.8,7.8C290.8,19.3,290.2,19.4,289.5,19.4L289.5,19.4z
		 M289.7,3.8c-0.4,0-0.8,0-1.1,0.2c-2.5,0.4-4.4,2.3-4.8,4.6c-0.4,2.1,0.2,4,1.5,5.3c1.3,1.3,3.2,1.9,5.2,1.5
		c2.5-0.4,4.4-2.3,4.8-4.6c0.4-2.1-0.2-4-1.5-5.3C292.7,4.4,291.2,3.8,289.7,3.8L289.7,3.8z"/>
</g>
</svg>
